<!DOCTYPE svg PUBLIC "-//W3C//DTD SVG 20010904//EN" "http://www.w3.org/TR/2001/REC-SVG-20010904/DTD/svg10.dtd">
<svg version="1.0" xmlns="http://www.w3.org/2000/svg" width="1043px" height="184px" viewBox="0 0 10430 1840" preserveAspectRatio="xMidYMid meet">
<g id="layer101" fill="#fcfcfc" stroke="none">
 <path d="M1727 1488 c-19 -24 -100 -142 -181 -264 l-147 -220 -202 43 c-111 24 -214 43 -229 43 -64 0 -57 7 -479 -506 -134 -162 -139 -170 -139 -222 0 -67 61 -122 136 -122 20 0 160 23 310 50 150 28 275 50 278 50 2 0 17 -19 32 -42 48 -76 86 -100 162 -106 61 -4 84 1 232 47 91 29 183 58 205 66 103 36 374 115 614 179 293 79 289 77 313 168 11 42 9 57 -15 150 -39 150 -95 340 -109 366 -7 14 -77 56 -197 118 -102 53 -249 130 -327 170 -176 92 -205 96 -257 32z m361 -167 c141 -65 282 -130 314 -144 31 -14 61 -33 66 -44 24 -44 116 -391 116 -435 -1 -60 -24 -95 -71 -107 -125 -32 -587 -154 -808 -214 -373 -101 -370 -100 -409 -93 -61 12 -105 97 -92 179 4 25 69 140 188 335 254 415 405 642 429 642 5 0 125 -54 267 -119z m-895 -309 l188 -37 -132 -200 c-149 -226 -160 -247 -168 -330 l-6 -60 -290 -47 c-159 -26 -296 -47 -303 -47 -27 -2 -62 47 -62 86 0 35 22 66 244 344 242 304 264 326 321 328 11 0 105 -16 208 -37z"/>
 <path d="M6690 990 l0 -360 30 0 c29 0 30 1 30 52 l0 52 33 -31 c55 -53 94 -68 177 -68 83 0 132 19 184 71 92 93 99 265 15 368 -90 107 -284 117 -375 19 l-24 -26 0 142 0 141 -35 0 -35 0 0 -360z m377 73 c69 -55 96 -136 74 -219 -38 -143 -202 -199 -311 -107 -52 43 -73 96 -68 173 7 127 81 194 205 187 52 -2 69 -8 100 -34z"/>
 <path d="M3290 895 l0 -265 30 0 c29 0 30 1 30 50 l0 50 38 -38 c26 -26 55 -43 85 -50 71 -18 77 -17 77 22 0 32 -1 34 -46 39 -58 6 -93 31 -121 87 -21 41 -23 58 -23 207 l0 163 -35 0 -35 0 0 -265z"/>
 <path d="M3782 1145 c-125 -54 -187 -193 -148 -329 52 -179 288 -245 433 -122 82 71 112 220 63 320 -24 51 -87 111 -136 132 -43 18 -169 17 -212 -1z m194 -64 c75 -34 109 -102 102 -206 -3 -45 -11 -72 -28 -98 -79 -116 -268 -109 -329 11 -74 147 12 311 164 311 28 0 68 -8 91 -18z"/>
 <path d="M4300 790 l0 -370 35 0 35 0 0 156 0 156 31 -32 c65 -64 154 -85 250 -57 111 33 179 125 179 246 0 86 -16 134 -64 188 -54 61 -103 83 -191 83 -83 0 -138 -22 -178 -69 l-27 -33 0 51 0 51 -35 0 -35 0 0 -370z m378 278 c105 -70 111 -248 12 -331 -65 -56 -167 -59 -237 -8 -94 68 -108 219 -30 308 44 50 80 64 153 60 46 -2 72 -9 102 -29z"/>
 <path d="M5075 1136 c-97 -46 -144 -125 -145 -242 0 -59 5 -81 28 -125 48 -93 152 -146 263 -136 133 12 226 107 237 243 13 164 -98 284 -262 284 -54 0 -83 -6 -121 -24z m198 -50 c44 -18 94 -77 108 -128 43 -160 -87 -300 -239 -258 -168 45 -195 302 -40 379 50 24 123 28 171 7z"/>
 <path d="M5682 1140 c-54 -34 -62 -67 -62 -270 l0 -180 -50 0 c-49 0 -50 -1 -50 -30 0 -29 1 -30 50 -30 l50 0 0 -55 0 -55 35 0 35 0 0 55 0 55 80 0 80 0 0 30 0 30 -80 0 -80 0 0 180 c0 179 0 181 25 205 26 27 89 34 125 15 15 -8 21 -6 31 11 18 35 -9 53 -89 57 -54 2 -73 -1 -100 -18z"/>
 <path d="M6119 1140 c-47 -25 -86 -71 -99 -118 -5 -20 -10 -117 -10 -214 l0 -178 34 0 34 0 4 189 c3 212 8 227 79 264 45 24 138 19 176 -9 70 -53 82 -96 83 -296 l0 -148 35 0 35 0 0 265 0 265 -35 0 c-35 0 -35 0 -35 -46 l0 -47 -20 26 c-51 65 -200 90 -281 47z"/>
 <path d="M7702 1140 c-54 -34 -62 -67 -62 -270 l0 -180 -50 0 c-49 0 -50 -1 -50 -30 0 -29 1 -30 50 -30 l50 0 0 -55 0 -55 35 0 35 0 0 55 0 55 80 0 80 0 0 30 0 30 -80 0 -80 0 0 180 c0 179 0 181 25 205 26 27 89 34 125 15 15 -8 21 -6 31 11 18 35 -9 53 -89 57 -54 2 -73 -1 -100 -18z"/>
 <path d="M8129 1146 c-92 -33 -155 -117 -165 -223 -13 -138 70 -258 198 -285 153 -32 291 68 305 221 l6 61 -222 0 -221 0 6 28 c25 103 108 158 224 150 42 -3 70 -12 100 -32 42 -28 43 -28 62 -8 20 19 20 20 -4 42 -43 41 -97 60 -178 59 -41 0 -91 -6 -111 -13z m271 -296 c0 -35 -26 -85 -59 -113 -111 -93 -270 -38 -305 106 l-6 27 185 0 c179 0 185 -1 185 -20z"/>
 <path d="M8637 1139 c-101 -53 -104 -203 -5 -256 26 -13 63 -18 167 -21 l133 -4 -6 -44 c-8 -61 -30 -90 -82 -110 -55 -21 -128 -13 -196 21 l-47 24 -16 -25 c-15 -23 -14 -25 17 -44 131 -81 319 -58 372 45 19 36 21 61 24 238 l4 197 -36 0 c-35 0 -36 -1 -36 -37 l0 -36 -23 21 c-58 54 -196 70 -270 31z m185 -39 c21 -6 51 -27 72 -50 31 -35 36 -47 36 -90 l0 -50 -92 0 c-160 1 -208 24 -208 99 0 77 89 119 192 91z"/>
 <path d="M9190 895 l0 -265 35 0 c35 0 35 0 35 46 l0 46 39 -35 c87 -78 224 -76 305 5 l39 39 37 -36 c86 -84 243 -86 321 -5 50 52 59 99 59 299 l0 171 -35 0 -35 0 0 -162 c0 -177 -8 -222 -44 -261 -47 -51 -153 -56 -215 -9 -58 43 -66 72 -69 260 l-4 172 -34 0 -34 0 0 -172 c0 -199 -12 -243 -72 -274 -44 -24 -127 -22 -169 2 -74 44 -88 91 -89 297 l0 147 -35 0 -35 0 0 -265z"/>
 </g>

</svg>