<!DOCTYPE svg PUBLIC "-//W3C//DTD SVG 20010904//EN" "http://www.w3.org/TR/2001/REC-SVG-20010904/DTD/svg10.dtd">
<svg version="1.0" xmlns="http://www.w3.org/2000/svg" width="815px" height="424px" viewBox="0 0 8150 4240" preserveAspectRatio="xMidYMid meet">
<g id="layer101" fill="#090909" stroke="none">
 <path d="M0 2120 l0 -2120 4075 0 4075 0 0 2120 0 2120 -4075 0 -4075 0 0 -2120z"/>
 </g>
<g id="layer102" fill="#ffffff" stroke="none">
 <path d="M0 2120 l0 -2120 4075 0 4075 0 0 2120 0 2120 -4075 0 -4075 0 0 -2120z m4600 1513 l0 -86 26 24 c20 19 37 24 74 24 84 0 130 -63 130 -180 0 -117 -46 -180 -130 -180 -37 0 -54 5 -74 24 -26 24 -26 24 -26 3 0 -17 -6 -22 -25 -22 l-25 0 0 240 0 240 25 0 c25 0 25 -1 25 -87z m-1761 -60 c47 -35 62 -79 59 -169 -3 -70 -7 -85 -31 -117 -64 -84 -194 -70 -244 26 -19 37 -22 156 -5 199 13 32 53 70 85 80 36 12 108 2 136 -19z m398 -5 c37 -34 53 -79 53 -153 0 -117 -46 -180 -130 -180 -37 0 -54 5 -74 24 l-26 24 0 -91 c0 -91 0 -92 -25 -92 l-25 0 0 245 0 245 25 0 c19 0 25 -5 25 -22 l0 -21 23 20 c12 11 29 23 37 26 29 12 92 -1 117 -25z m372 5 c42 -31 61 -79 61 -158 0 -113 -43 -173 -131 -182 -51 -5 -102 18 -132 59 -40 55 -40 191 0 246 45 62 142 79 202 35z m737 -4 l24 -22 0 21 c0 18 6 22 30 22 l30 0 0 -175 0 -175 -30 0 -30 0 0 120 c0 145 -11 175 -67 186 -32 6 -40 3 -60 -20 -21 -25 -23 -36 -23 -157 l0 -129 -31 0 -31 0 3 143 c4 153 14 187 62 207 34 15 96 4 123 -21z m754 16 c15 -8 30 -20 33 -27 3 -7 6 -3 6 10 1 18 7 22 31 22 l30 0 0 -245 0 -245 -30 0 -30 0 0 90 c0 90 0 90 -20 70 -42 -42 -130 -34 -169 17 -44 55 -52 183 -16 254 31 60 106 85 165 54z m470 -5 c12 -6 20 -21 20 -35 0 -14 -1 -25 -2 -25 -2 0 -21 7 -43 15 -100 36 -185 -3 -185 -85 0 -19 8 -20 119 -20 66 0 122 -3 124 -7 3 -5 1 -32 -4 -62 -19 -120 -149 -170 -241 -93 -40 34 -58 79 -58 147 0 90 39 154 106 175 34 11 137 5 164 -10z m-3665 -55 l17 -65 38 0 38 0 -14 53 c-19 70 -18 77 9 77 21 0 25 -8 38 -62 l14 -63 48 -3 c42 -3 47 -5 47 -28 0 -22 -4 -24 -41 -24 -32 0 -40 -3 -36 -14 3 -8 9 -31 13 -50 6 -35 8 -36 50 -36 40 0 44 -2 44 -25 0 -22 -4 -25 -35 -25 -40 0 -39 2 -20 -70 8 -30 15 -56 15 -57 0 -2 -11 -3 -25 -3 -25 0 -27 4 -51 103 -5 24 -11 27 -44 27 l-38 0 14 -52 c19 -71 18 -78 -9 -78 -21 0 -25 8 -38 63 l-14 62 -48 3 c-42 3 -47 5 -47 28 0 22 4 24 41 24 32 0 40 3 36 14 -3 8 -9 31 -13 50 -6 35 -7 36 -55 36 -46 0 -49 2 -49 25 0 23 4 25 40 25 45 0 45 0 25 66 -19 64 -19 64 9 64 20 0 25 -8 41 -65z m445 -44 c0 -123 8 -152 45 -177 28 -18 93 -21 124 -4 19 10 21 8 21 -19 0 -25 -5 -31 -36 -41 -47 -16 -96 -6 -128 27 l-26 26 0 -27 c0 -22 -4 -26 -30 -26 l-30 0 0 175 0 175 30 0 30 0 0 -109z m1690 84 c0 -24 -3 -25 -53 -25 -29 0 -58 -5 -65 -12 -8 -8 -12 -52 -12 -130 l0 -118 65 0 c58 0 65 -2 65 -20 0 -18 -7 -20 -65 -20 l-65 0 0 -50 c0 -49 -1 -50 -30 -50 -29 0 -30 1 -30 50 l0 50 -45 0 c-38 0 -45 3 -45 20 0 17 7 20 45 20 l45 0 0 118 c0 165 19 192 133 192 54 0 57 -1 57 -25z m1896 -153 l62 -173 -32 3 c-30 3 -32 6 -78 138 -26 74 -48 139 -50 144 -2 4 -26 -58 -53 -138 -48 -140 -51 -146 -77 -146 -16 0 -28 4 -28 8 0 7 81 240 111 320 8 19 15 23 46 20 l38 -3 61 -173z m-974 -1183 c173 -155 239 -222 226 -230 -7 -5 -9 -11 -5 -15 3 -4 14 -1 24 7 10 8 14 9 10 2 -5 -7 2 -19 17 -28 34 -22 151 -62 206 -70 25 -4 56 -9 70 -11 14 -3 37 -5 53 -4 15 0 27 -4 27 -10 0 -6 10 -8 24 -4 14 3 31 2 38 -2 7 -5 20 -9 28 -9 8 -1 25 -2 37 -3 12 -1 28 -8 35 -16 18 -17 58 -30 58 -18 0 4 -11 19 -25 32 -14 13 -25 29 -25 35 0 7 -17 28 -37 47 -84 80 -153 157 -153 170 0 8 -5 19 -10 24 -25 25 -30 129 -10 189 15 46 51 64 121 61 30 -2 66 -4 81 -5 15 0 33 -7 40 -14 7 -7 24 -13 38 -14 44 -4 144 -24 150 -30 3 -3 -32 -3 -77 -1 l-82 5 4 -26 c8 -62 17 -81 44 -87 14 -4 31 -10 36 -14 6 -4 38 -11 72 -15 35 -4 60 -11 57 -16 -11 -18 27 -21 46 -4 29 26 26 0 -5 -59 -14 -26 -25 -53 -25 -60 0 -8 19 -30 43 -50 23 -20 55 -47 70 -61 15 -14 32 -25 37 -25 5 0 17 -13 26 -29 10 -17 21 -28 26 -25 4 3 5 -3 1 -12 -4 -12 -3 -15 5 -10 8 5 10 2 6 -8 -4 -10 -1 -16 7 -16 11 0 11 -3 -1 -10 -10 -6 -11 -10 -3 -10 7 0 12 -3 12 -7 -1 -5 0 -10 1 -13 7 -20 7 -40 -2 -40 -6 0 -8 -7 -5 -15 4 -8 2 -17 -4 -20 -5 -4 -7 -11 -4 -16 4 -5 1 -9 -4 -9 -6 0 -11 -6 -11 -12 0 -7 -7 -26 -15 -42 -9 -16 -13 -31 -11 -33 7 -8 79 18 94 34 8 7 17 11 22 8 4 -3 11 2 14 10 3 8 9 14 13 13 15 -3 58 20 77 41 39 43 43 8 5 -39 -12 -14 -17 -18 -13 -10 4 8 -5 4 -21 -10 -16 -14 -25 -18 -21 -10 4 8 0 6 -8 -4 -9 -11 -16 -16 -16 -12 0 4 -6 4 -12 -1 -7 -4 -18 -8 -24 -9 -6 -1 -36 -14 -68 -29 -51 -24 -57 -30 -52 -51 5 -20 2 -26 -19 -34 -14 -5 -25 -13 -25 -17 0 -5 -12 -21 -26 -38 -14 -16 -40 -52 -56 -80 -40 -64 -94 -111 -138 -119 -39 -8 -41 -11 35 45 17 12 46 44 65 72 41 59 100 129 117 140 7 4 10 13 7 21 -3 7 1 26 7 42 7 16 11 36 10 45 -1 9 5 19 14 22 8 4 15 15 15 25 0 10 4 22 9 28 5 5 11 23 13 39 2 17 8 33 13 38 6 5 4 12 -5 20 -8 6 -14 21 -12 32 3 25 -32 83 -56 92 -23 9 -28 13 -141 123 -99 97 -155 145 -220 190 -20 14 -39 30 -43 36 -4 6 -21 17 -38 24 -31 13 -40 30 -16 30 8 0 21 2 28 5 9 4 19 -4 26 -20 14 -31 34 -33 29 -2 -8 56 -37 75 -143 92 -35 5 -46 2 -70 -18 -27 -24 -29 -30 -29 -104 l0 -78 54 -70 c30 -38 66 -81 81 -95 14 -14 55 -58 89 -98 68 -78 68 -79 43 -172 -17 -64 -91 -220 -104 -220 -5 0 -8 -5 -8 -11 0 -29 -44 -98 -67 -104 -13 -3 -28 -16 -33 -29 -5 -14 -18 -27 -28 -30 -14 -5 -21 -19 -25 -52 -6 -53 -15 -66 -28 -41 -7 12 -23 17 -52 17 -23 1 -60 8 -82 17 -22 8 -51 16 -65 18 -14 1 -38 7 -54 14 -43 18 -62 11 -58 -22 3 -25 1 -27 -17 -18 -11 6 -26 11 -35 11 -18 0 -43 -48 -41 -78 1 -12 -2 -22 -7 -22 -4 0 -8 6 -9 13 -1 22 -18 -27 -18 -56 -1 -16 5 -30 14 -33 8 -4 13 -10 10 -14 -3 -5 0 -12 6 -16 19 -11 -13 -24 -33 -13 -25 13 -74 -24 -88 -67 -23 -69 10 -193 61 -234 18 -14 43 -35 56 -47 13 -13 48 -30 78 -38 30 -9 58 -21 61 -27 4 -7 9 -6 14 3 7 10 19 10 67 -1 61 -15 64 -15 103 -7 82 19 150 58 216 124 13 13 31 24 41 25 10 0 23 2 28 3 72 13 99 20 148 37 32 11 61 17 64 14 3 -3 21 1 39 9 19 8 34 12 34 9 0 -2 14 3 31 11 17 9 40 15 52 13 16 -2 9 -8 -28 -21 -27 -10 -61 -20 -73 -23 -13 -2 -43 -11 -65 -20 -23 -8 -51 -17 -61 -19 -11 -3 -24 -9 -30 -15 -5 -5 -19 -10 -31 -10 -39 0 -160 -50 -180 -75 -12 -14 -24 -25 -29 -25 -4 0 -20 -8 -34 -18 -48 -32 -99 -43 -194 -42 -124 3 -198 25 -277 84 -19 14 -40 26 -47 26 -6 0 -24 26 -40 58 -24 49 -28 70 -28 145 -1 88 -1 89 32 115 18 15 32 33 32 40 0 6 7 12 16 12 12 0 15 6 11 22 -4 12 -3 41 0 64 6 49 63 115 118 138 39 17 152 11 175 -10 8 -7 43 -16 77 -20 35 -3 66 -7 69 -8 4 0 12 16 18 36 6 21 21 45 34 54 12 8 22 24 22 34 0 12 8 20 22 22 23 3 77 72 78 99 0 20 -40 102 -47 95 -3 -3 -18 1 -33 9 -15 8 -30 11 -33 8 -4 -3 -12 -1 -20 5 -7 6 -22 11 -32 11 -38 -1 -131 20 -185 42 -106 43 -185 81 -206 100 -12 11 -25 19 -30 18 -17 -4 -44 13 -44 27 0 8 -8 14 -18 14 -10 0 -29 12 -43 26 -13 14 -36 32 -51 40 -33 17 -35 66 -4 72 23 5 98 -18 108 -32 8 -12 40 12 32 25 -3 5 7 9 23 10 32 1 79 17 52 18 -22 1 -248 176 -358 278 l-56 52 -140 -95 c-159 -108 -202 -132 -299 -165 l-69 -23 143 -68 c143 -68 306 -134 359 -144 19 -4 50 3 92 21 74 32 132 38 137 15 3 -16 -52 -38 -165 -65 -50 -13 -57 -12 -155 22 -57 19 -170 69 -253 111 -196 101 -209 107 -202 88 6 -14 -17 -113 -67 -297 -27 -98 -56 -246 -56 -285 0 -20 6 -21 153 -27 89 -4 191 -15 247 -27 148 -31 135 -40 151 103 8 67 10 124 6 126 -20 8 -29 -23 -32 -111 l-3 -93 -59 -3 c-32 -2 -74 1 -93 7 -104 29 -244 53 -248 43 -2 -7 -10 -12 -18 -12 -19 0 -19 95 1 215 7 50 21 135 30 189 8 55 18 102 20 105 3 2 13 -3 23 -12 17 -16 218 -94 302 -118 50 -14 80 -35 80 -56 0 -28 -79 -5 -250 74 -47 22 -92 42 -101 45 -13 5 -19 -16 -37 -135 -12 -78 -28 -167 -36 -198 l-14 -57 92 -17 c50 -10 135 -20 189 -22 l97 -6 1 79 c1 97 11 165 24 165 6 0 11 -12 13 -26 6 -47 27 -20 34 45 7 61 20 91 35 77 4 -4 1 -112 -5 -239 -9 -181 -15 -236 -27 -247 -16 -16 -25 -15 -215 23 -41 8 -129 22 -195 32 -209 29 -190 20 -193 89 -2 33 2 98 8 145 13 99 76 429 83 436 3 3 14 6 25 7 21 1 22 7 6 84 -6 29 12 40 167 107 116 50 225 109 344 184 l50 32 67 -69 c36 -38 113 -111 170 -162z m-2388 176 c40 -12 316 -150 351 -175 6 -4 64 -35 130 -70 66 -34 134 -70 150 -80 17 -9 75 -41 130 -70 124 -66 164 -91 191 -121 25 -28 74 -175 137 -409 74 -275 79 -307 51 -401 -30 -99 -46 -107 -539 -244 -377 -105 -375 -104 -840 -253 -498 -160 -513 -164 -601 -151 -107 15 -161 53 -243 172 -24 35 -37 46 -50 42 -18 -5 -114 -24 -266 -50 -44 -8 -168 -30 -277 -49 -283 -51 -325 -54 -383 -26 -64 31 -105 95 -105 162 0 78 -6 70 302 454 387 485 496 608 546 621 41 10 154 -9 552 -94 139 -29 112 -45 224 129 182 284 399 595 425 611 32 20 53 21 115 2z m3686 -102 c58 -8 114 -19 125 -23 11 -5 41 -11 68 -12 26 -2 46 -6 45 -9 -2 -3 3 -13 11 -22 7 -10 10 -17 5 -17 -5 0 -10 -20 -10 -45 -1 -25 0 -45 2 -45 1 0 15 5 31 11 53 21 187 1 250 -38 41 -25 113 -88 113 -99 0 -5 39 -9 88 -9 98 0 144 -16 198 -69 33 -33 72 -102 81 -145 10 -45 6 -172 -6 -184 -6 -6 -11 -23 -11 -38 0 -15 -4 -31 -10 -34 -5 -3 -10 -13 -10 -21 0 -16 -100 -226 -111 -234 -4 -3 -11 -18 -14 -33 -4 -15 -11 -27 -16 -27 -5 0 -9 -6 -9 -12 0 -7 -6 -25 -14 -39 -35 -68 -78 -243 -68 -280 1 -4 3 -22 5 -40 10 -77 54 -164 97 -191 17 -11 17 -12 -3 -29 -17 -13 -27 -15 -51 -6 -84 29 -149 108 -161 194 -11 84 32 310 66 348 5 5 9 17 9 26 0 10 6 24 13 31 6 8 25 38 41 68 16 30 35 62 42 71 8 8 14 25 14 37 0 12 4 22 8 22 15 0 62 107 73 166 12 67 7 171 -12 205 -35 68 -104 119 -159 119 -26 0 -27 -2 -28 -59 0 -70 -31 -272 -43 -285 -5 -6 -9 -18 -9 -28 0 -10 -4 -26 -9 -36 -4 -9 -19 -39 -32 -67 -40 -82 -60 -110 -149 -207 -52 -57 -135 -122 -201 -159 -16 -9 -35 -21 -42 -28 -20 -16 -170 -91 -183 -91 -5 0 -34 -12 -64 -26 -54 -26 -99 -40 -86 -26 4 4 11 7 14 8 4 0 34 13 67 29 33 15 65 28 71 29 6 1 23 9 37 19 15 9 29 17 33 17 14 0 162 91 179 110 10 11 24 20 31 20 7 0 23 13 36 30 12 16 25 30 30 30 11 0 87 84 130 144 42 59 100 173 118 231 7 22 16 49 21 60 13 32 40 228 35 254 -3 12 -14 39 -26 58 -11 19 -20 40 -20 47 0 23 -125 126 -154 126 -8 0 -17 4 -21 9 -3 5 -34 12 -69 16 -48 5 -70 3 -94 -9 -17 -9 -39 -16 -49 -16 -25 -1 -88 -33 -89 -45 -1 -16 -27 -69 -41 -83 -7 -7 -13 -17 -13 -21 0 -4 -11 -21 -25 -37 -26 -30 -43 -29 -27 3 5 10 17 34 26 53 19 39 47 78 90 124 36 38 65 102 58 128 -7 27 -36 36 -157 48 -118 11 -296 38 -304 46 -10 10 133 2 239 -13z m-1363 -189 c-4 -4 -17 -12 -29 -18 -13 -6 -24 -19 -26 -29 -3 -13 4 -17 32 -17 42 0 54 -15 25 -30 -23 -13 -85 -5 -106 12 -20 16 -15 55 9 72 21 15 109 23 95 10z m-277 -39 c29 -35 -35 -42 -70 -8 -13 13 -13 16 4 28 20 15 42 9 66 -20z m-145 -42 c60 -29 34 -55 -29 -29 -45 19 -47 31 -9 45 1 1 18 -7 38 -16z m249 -9 c18 -7 22 -34 5 -34 -19 0 -50 21 -44 31 7 11 17 11 39 3z m971 -14 c3 -5 4 -10 1 -10 -3 0 -8 5 -11 10 -3 6 -4 10 -1 10 3 0 8 -4 11 -10z m-1095 -35 c19 -10 27 -20 24 -30 -8 -19 -16 -19 -59 -1 -36 15 -45 30 -22 39 20 9 27 8 57 -8z m268 -19 c3 -16 0 -18 -24 -12 -35 9 -38 12 -29 26 11 17 49 7 53 -14z m-134 -37 c36 -21 44 -33 28 -43 -14 -8 -92 32 -92 49 0 21 22 19 64 -6z m759 -943 c12 -15 16 -31 12 -56 -9 -53 -16 -71 -25 -65 -7 4 -22 -18 -24 -37 -1 -3 -5 -10 -10 -15 -5 -5 -6 -2 -2 7 4 8 -1 4 -12 -9 -11 -13 -24 -21 -31 -17 -6 4 -14 0 -17 -8 -3 -9 -10 -13 -15 -10 -5 3 -9 1 -9 -3 0 -17 -71 -14 -101 4 -32 19 -43 44 -37 89 4 38 28 44 28 6 0 -16 10 -42 21 -57 19 -23 27 -26 56 -20 46 8 105 44 96 58 -3 7 -3 9 2 5 11 -11 35 18 46 54 13 48 12 54 -18 84 l-28 26 25 -7 c14 -4 33 -17 43 -29z"/>
 <path d="M4652 3543 c-42 -17 -60 -158 -29 -220 26 -50 79 -58 117 -18 42 45 40 185 -2 225 -21 19 -58 25 -86 13z"/>
 <path d="M2709 3537 c-28 -21 -41 -58 -42 -117 0 -71 16 -114 49 -129 37 -17 60 -14 91 13 27 23 28 28 28 111 0 83 -1 88 -28 111 -30 26 -72 31 -98 11z"/>
 <path d="M3112 3543 c-43 -17 -61 -157 -29 -220 21 -39 60 -52 96 -32 40 23 52 56 49 136 -3 60 -7 76 -27 97 -23 25 -57 32 -89 19z"/>
 <path d="M3466 3519 c-23 -27 -26 -39 -26 -106 0 -69 2 -77 29 -104 36 -36 70 -37 108 -5 27 23 28 28 28 111 0 83 -1 88 -28 111 -39 34 -79 31 -111 -7z"/>
 <path d="M5005 3526 c-45 -45 -45 -177 1 -223 60 -60 134 1 134 112 0 112 -74 172 -135 111z"/>
 <path d="M5360 3370 c0 -43 54 -90 104 -90 32 0 72 37 80 73 l6 27 -95 0 c-53 0 -95 -4 -95 -10z"/>
 <path d="M1940 3398 c0 -7 5 -30 11 -50 9 -35 13 -38 44 -38 38 0 40 5 24 63 -9 34 -13 37 -44 37 -21 0 -35 -5 -35 -12z"/>
 <path d="M4647 2352 c-26 -16 -53 -37 -61 -47 -7 -10 -18 -15 -24 -11 -6 4 -46 -11 -89 -32 -43 -22 -111 -51 -151 -66 -95 -34 -112 -43 -112 -62 0 -25 38 -12 215 75 88 43 193 93 232 111 59 26 71 36 62 46 -15 18 -16 18 -72 -14z"/>
 <path d="M5919 2144 c26 -33 90 -84 106 -84 14 0 29 46 20 60 -5 8 -76 32 -95 32 -3 0 -15 4 -28 9 l-24 9 21 -26z"/>
 <path d="M5140 1975 c0 -3 15 -19 33 -35 l32 -29 -27 -1 c-14 0 -28 -6 -31 -12 -4 -10 -7 -10 -18 0 -7 6 -22 12 -34 12 -12 0 -30 7 -41 15 -10 8 -27 15 -36 15 -9 0 -23 7 -32 15 -9 10 -17 11 -21 5 -4 -6 9 -25 28 -44 40 -39 155 -120 177 -124 8 -2 20 -10 26 -18 6 -7 22 -14 36 -14 14 0 28 -3 32 -7 3 -4 16 -8 27 -10 12 -2 52 -17 90 -34 38 -16 74 -27 79 -24 6 3 10 1 10 -5 0 -5 12 -10 28 -10 23 1 71 -4 130 -12 6 -1 12 -5 12 -10 0 -5 5 -6 10 -3 6 3 13 -2 17 -12 9 -25 53 -77 53 -63 0 7 9 24 19 39 11 15 23 39 26 54 4 15 11 27 16 27 5 0 9 10 9 23 0 13 5 28 11 34 13 13 4 33 -17 33 -8 0 -14 4 -14 9 0 9 -44 27 -85 34 -11 2 -28 7 -37 11 -9 4 -21 5 -27 2 -5 -4 -12 -2 -16 4 -3 6 -18 9 -33 8 -15 -1 -37 4 -48 10 -12 6 -24 9 -27 5 -3 -3 -14 -2 -24 3 -10 4 -22 8 -28 9 -39 5 -132 29 -177 46 -29 11 -58 21 -65 23 -7 1 -20 10 -31 19 -18 17 -32 22 -32 12z"/>
 <path d="M5086 1944 c-4 -10 -1 -14 6 -12 15 5 23 28 10 28 -5 0 -13 -7 -16 -16z"/>
 <path d="M2513 2248 c-75 -80 -287 -411 -607 -951 -252 -425 -275 -482 -245 -591 28 -101 100 -154 189 -141 35 5 698 182 1090 290 30 9 180 49 333 90 153 41 291 82 308 90 98 51 91 158 -37 603 -24 84 -51 166 -59 182 -19 37 -45 51 -462 243 -436 201 -471 217 -475 217 -2 0 -18 -15 -35 -32z"/>
 <path d="M1272 1684 c-40 -20 -157 -150 -288 -319 -51 -66 -144 -185 -206 -265 -145 -185 -241 -318 -257 -358 -16 -39 -8 -91 21 -127 37 -47 44 -47 283 -6 33 6 188 32 345 57 157 26 286 48 288 49 1 1 7 37 12 81 17 135 47 194 285 563 80 124 145 227 145 231 0 3 -30 11 -67 17 -38 6 -111 21 -163 31 -301 63 -353 69 -398 46z"/>
 <path d="M6943 1974 c-7 -3 -13 -14 -13 -24 0 -18 6 -21 93 -35 80 -13 151 -115 164 -236 3 -34 2 -69 -4 -82 -6 -12 -17 -42 -24 -67 -7 -25 -19 -56 -26 -70 -7 -14 -13 -30 -13 -37 0 -6 -3 -13 -7 -15 -5 -1 -21 -29 -36 -60 -16 -32 -32 -60 -37 -63 -5 -3 -11 -19 -15 -35 -4 -17 -11 -30 -16 -30 -5 0 -9 -6 -9 -13 0 -7 -9 -29 -20 -50 -11 -20 -20 -44 -20 -52 0 -8 -4 -15 -10 -15 -5 0 -10 -9 -10 -21 0 -11 -4 -28 -10 -38 -5 -10 -15 -59 -21 -109 -13 -96 -6 -141 31 -204 27 -46 120 -99 120 -69 0 5 -7 14 -16 22 -19 15 -38 52 -58 109 -17 51 -15 232 3 238 6 2 11 17 11 33 0 16 4 37 9 47 8 16 35 69 70 137 9 16 19 32 22 35 9 8 45 81 64 130 10 25 21 54 26 65 4 11 12 37 18 58 6 20 16 54 23 75 15 48 12 187 -4 233 -17 46 -65 101 -108 123 -34 16 -155 30 -177 20z"/>
 </g>

</svg>